<svg width="689" height="590" viewBox="0 0 689 590" fill="none" xmlns="http://www.w3.org/2000/svg">
<path d="M622.222 440.435C687.047 440.435 739.597 387.885 739.597 323.06C739.597 258.236 687.047 205.686 622.222 205.686C557.398 205.686 504.848 258.236 504.848 323.06C504.848 387.885 557.398 440.435 622.222 440.435Z" fill="#8A2BE2" fill-opacity="0.8"/>
<path d="M382.258 588.942C447.082 588.942 499.632 536.391 499.632 471.567C499.632 406.743 447.082 354.192 382.258 354.192C317.433 354.192 264.883 406.743 264.883 471.567C264.883 536.391 317.433 588.942 382.258 588.942Z" stroke="#C4C4C4" stroke-miterlimit="10"/>
<path d="M629.625 280.169C694.449 280.169 747 227.619 747 162.795C747 97.9704 694.449 45.4199 629.625 45.4199C564.8 45.4199 512.25 97.9704 512.25 162.795C512.25 227.619 564.8 280.169 629.625 280.169Z" stroke="#C4C4C4" stroke-miterlimit="10"/>
<path d="M411.858 234.951C428.017 234.951 441.117 221.851 441.117 205.692C441.117 189.532 428.017 176.432 411.858 176.432C395.698 176.432 382.598 189.532 382.598 205.692C382.598 221.851 395.698 234.951 411.858 234.951Z" fill="#8A2BE2" fill-opacity="0.9"/>
<path d="M224.58 387.624C230.195 387.624 234.747 383.072 234.747 377.457C234.747 371.843 230.195 367.291 224.58 367.291C218.966 367.291 214.414 371.843 214.414 377.457C214.414 383.072 218.966 387.624 224.58 387.624Z" fill="#8A2BE2"/>
<path d="M512.248 512.788C556.042 512.788 591.543 477.286 591.543 433.492C591.543 389.699 556.042 354.197 512.248 354.197C468.455 354.197 432.953 389.699 432.953 433.492C432.953 477.286 468.455 512.788 512.248 512.788Z" fill="url(#paint0_linear_418_10)"/>
<path d="M117.375 377.459C182.199 377.459 234.75 324.908 234.75 260.084C234.75 195.259 182.199 142.709 117.375 142.709C52.5505 142.709 0 195.259 0 260.084C0 324.908 52.5505 377.459 117.375 377.459Z" fill="url(#paint1_linear_418_10)"/>
<path d="M117.373 196.669C161.167 196.669 196.668 161.168 196.668 117.374C196.668 73.5807 161.167 38.0791 117.373 38.0791C73.5798 38.0791 38.0781 73.5807 38.0781 117.374C38.0781 161.168 73.5798 196.669 117.373 196.669Z" fill="url(#paint2_linear_418_10)"/>
<path d="M190.005 233.737C190.04 224.208 182.344 216.455 172.815 216.42C163.286 216.384 155.533 224.081 155.498 233.61C155.462 243.139 163.158 250.892 172.687 250.927C182.216 250.963 189.97 243.266 190.005 233.737Z" stroke="#F8F0E4" stroke-miterlimit="10"/>
<path d="M581.311 128.919L563.09 147.134" stroke="#E12179" stroke-miterlimit="10"/>
<path d="M581.311 147.134L563.09 128.919" stroke="#E12179" stroke-miterlimit="10"/>
<path d="M581.311 153.684L563.09 171.905" stroke="#E12179" stroke-miterlimit="10"/>
<path d="M581.311 171.905L563.09 153.684" stroke="#E12179" stroke-miterlimit="10"/>
<path d="M581.311 178.449L563.09 196.67" stroke="#E12179" stroke-miterlimit="10"/>
<path d="M581.311 196.67L563.09 178.449" stroke="#E12179" stroke-miterlimit="10"/>
<path d="M128.922 404.296L147.137 422.517" stroke="#F8F0E4" stroke-miterlimit="10"/>
<path d="M147.137 404.296L128.922 422.517" stroke="#F8F0E4" stroke-miterlimit="10"/>
<path d="M153.684 404.296L171.905 422.517" stroke="#F8F0E4" stroke-miterlimit="10"/>
<path d="M171.905 404.296L153.684 422.517" stroke="#F8F0E4" stroke-miterlimit="10"/>
<path d="M178.445 404.296L196.666 422.517" stroke="#F8F0E4" stroke-miterlimit="10"/>
<path d="M196.666 404.296L178.445 422.517" stroke="#F8F0E4" stroke-miterlimit="10"/>
<defs>
<linearGradient id="paint0_linear_418_10" x1="432.953" y1="433.489" x2="591.547" y2="433.489" gradientUnits="userSpaceOnUse">
<stop stop-color="#D24074"/>
<stop offset="1" stop-color="#8A2BE2" stop-opacity="0.5"/>
</linearGradient>
<linearGradient id="paint1_linear_418_10" x1="117.372" y1="377.456" x2="117.372" y2="142.712" gradientUnits="userSpaceOnUse">
<stop stop-color="#E12179"/>
<stop offset="1" stop-color="#8A2BE2" stop-opacity="0.5"/>
</linearGradient>
<linearGradient id="paint2_linear_418_10" x1="117.37" y1="196.668" x2="117.37" y2="38.0746" gradientUnits="userSpaceOnUse">
<stop stop-color="#E12179"/>
<stop offset="1" stop-color="#8A2BE2" stop-opacity="0.5"/>
</linearGradient>
</defs>
</svg>
